<svg xmlns="http://www.w3.org/2000/svg" xmlns:xlink="http://www.w3.org/1999/xlink" width="119" height="125" viewBox="0 0 119 125">
    <defs>
        <path id="sta1kbgq6a" d="M0 0.011L4.167 0.011 4.167 2.019 0 2.019z"/>
        <path id="8iqguo216c" d="M0 0.011L1.654 0.011 1.654 2.019 0 2.019z"/>
        <path id="vgdv46nvrd" d="M0.195 0L36.927 0 36.927 26.341 0.195 26.341z"/>
        <path id="1c8ui9g77f" d="M0 0.153L36.796 0.153 36.796 4.506 0 4.506z"/>
        <path id="veyd38duoh" d="M0.144 0.022L37.687 0.022 37.687 30.258 0.144 30.258z"/>
        <path id="tngkms3u1j" d="M0.002 0.271L13.193 0.271 13.193 2.838 0.002 2.838z"/>
    </defs>
    <g fill="none" fill-rule="evenodd">
        <path fill="#9ACCFF" d="M118.952 107.355c-1.603-13.12-87.635-38.444-103.606-26.017-15.972 12.428-.617 35.751 32.853 41.724 33.47 5.972 72.356-2.586 70.753-15.707z" opacity=".5"/>
        <path fill="#C5CFD6" d="M0 52v-6h100v6h-1v46h-1.013L95 52h-2l-2.987 46H89V52H11v46H9.776L7 52H5L2.224 98H1V52H0z"/>
        <g fill-rule="nonzero">
            <g transform="matrix(-1 0 0 1 106 0) translate(7.64)">
                <path fill="#2F2E41" d="M13.902 21.901l-2.62-.642c-2.026.002-3.946-.911-5.23-2.488-1.283-1.576-1.795-3.65-1.394-5.647-.006-4.901 3.938-8.88 8.81-8.886 4.87-.006 8.824 3.962 8.83 8.864 1.486 5.203-3.168 10.082-8.396 8.8z"/>
                <ellipse cx="16.765" cy="16.308" fill="#FFB8B8" rx="6.481" ry="6.521"/>
                <path fill="#FFB8B8" d="M12.539 19.71s-1.973 6.805-3.1 7.372c-1.127.567 9.017 1.418 9.017 1.418s-.282-6.521.282-7.088c.563-.567-6.2-1.702-6.2-1.702z"/>
                <path fill="#505361" d="M22.682 61.672s12.68-1.134 14.37 3.118c1.69 4.253-1.127 29.487-1.127 29.487h-5.353V73.58S7.745 67.05 7.745 64.782s14.937-3.11 14.937-3.11z"/>
                <path fill="#2F2E41" d="M35.08 93.142l2.818 1.135s3.38-.284 1.972 2.268c-.817 1.5-2.27 2.544-3.945 2.835 0 0-5.353 1.985-5.635 0-.282-1.985 1.409-5.954 1.409-5.954l3.381-.284z"/>
                <path fill="#505361" d="M15.638 61.672s12.68-1.134 14.37 3.118c1.69 4.253-1.127 29.487-1.127 29.487h-5.353V73.58S7.324 69.803 7.324 67.535c0-1.066-1.104-6.481.842-7.622 2.196-1.288 7.472 1.759 7.472 1.759z"/>
                <path fill="#2F2E41" d="M28.036 93.142l2.817 1.135s3.382-.284 1.973 2.268c-.817 1.5-2.27 2.544-3.945 2.835 0 0-5.353 1.985-5.635 0-.282-1.985 1.409-5.954 1.409-5.954l3.38-.284z"/>
                <path fill="#D4E4F4" d="M9.721 26.231l8.468.927c2.68.293 4.87 2.286 5.428 4.941l3.292 15.68s1.127 15.594-1.127 16.444c-2.254.85-5.354-3.402-9.58-2.835-4.227.567-9.721 1.843-9.721 1.843s-.873-27.912-.987-30.195c-.227-4.564 4.227-6.805 4.227-6.805z"/>
                <ellipse cx="4.186" cy="6.792" fill="#2F2E41" rx="4.186" ry="4.212"/>
                <path fill="#2F2E41" d="M8.049 4.528c-.001-1.262-.564-2.457-1.535-3.256C5.544.474 4.268.155 3.039.404 4.5-.291 6.23-.076 7.48.955 8.73 1.987 9.278 3.651 8.886 5.23 8.495 6.81 7.234 8.02 5.65 8.34c1.466-.695 2.401-2.18 2.4-3.811zM11.64 6.917l5.644-1.046 4.34 2.737c2.179 1.375 3.363 3.9 3.033 6.466l-4.347-1.11-.973-2.455-1.16 1.912-6.061 7.849-3.403-2.18-3.034-4.785 5.961-7.388z"/>
                <path fill="#D4E4F4" d="M16.288 28.643l2.817-1.417s5.917.85 7.044 4.82c1.128 3.969 6.2 31.47 6.2 31.47l-4.79 2.269-6.763-16.728-4.508-20.414z"/>
                <path fill="#000" d="M18.686 39.8L21.506 50.814 26.507 63.184 26.334 63.613 20.369 51.021z" opacity=".2"/>
                <path fill="#FFB8B8" d="M29.779 62.482l3.476 2.06s6.237-.9 6.042 1.305c-.195 2.206-7.002 1.78-7.002 1.78l-4.19-2.598 1.674-2.547z"/>
            </g>
            <g>
                <path fill="#000" d="M2.853 57.469L1.75 57.087 12.432 25.159 13.977 25.694zM43.683 57.469L44.786 57.087 34.103 25.159 32.559 25.694zM21.11 64.063L22.276 64.067 22.639 26.744 21.006 26.738z" transform="matrix(-1 0 0 1 106 0) translate(0 48.397)"/>
                <path fill="#002AAF" d="M.153 6.399l3.2 13.013c.913 3.713 3.79 6.616 7.478 7.543 8.924 2.245 18.267 2.185 27.161-.176l4.778-1.267c2.775-.737 4.863-3.136 5.06-6.018.08-1.019-.103-2.041-.532-2.967l-.056-.12c-1.27-2.624-3.882-4.323-6.782-4.411l-5.06-.165-18.431-8.216S10.629.375 5.419.012C1.976-.228-.677 3.03.152 6.4z" transform="matrix(-1 0 0 1 106 0) translate(0 48.397)"/>
            </g>
        </g>
        <g>
            <path fill="#B1DBFC" d="M3.89 6.66H.276c-.06 0-.115-.022-.158-.057l.05.164c.075.207.27.344.489.344h3.231c.219 0 .385-.174.46-.38l-.182-.071M2.857 4.571l-.185-.634c-.185.064-.383.099-.589.099-.205 0-.403-.035-.589-.1l-.184.635h1.547z" transform="rotate(1 -493.952 2582.658)"/>
            <g transform="rotate(1 -493.952 2582.658) translate(0 4.571)">
                <mask id="i7icaewwib" fill="#fff">
                    <use xlink:href="#sta1kbgq6a"/>
                </mask>
                <path fill="#DFEBFA" d="M3.67.305C3.609.13 3.448.011 3.267.011H.9C.72.011.558.13.496.305l-.48 1.358c-.061.173.062.356.238.356h.972l.104-.293c.03-.084.106-.14.192-.14h1.122c.086 0 .163.056.192.14l.104.293 1.108.377c.176 0 .164-.56.103-.733L3.67.305z" mask="url(#i7icaewwib)"/>
            </g>
            <g transform="rotate(1 -493.952 2582.658) translate(0 4.571)"/>
            <path fill="#2E5BCC" d="M2.976 6.73l-.117-.354c-.03-.092-.11-.154-.198-.154H1.505c-.088 0-.167.062-.198.154l-.117.354h1.786z" transform="rotate(1 -493.952 2582.658)"/>
            <path fill="#2E5BCC" d="M2.143 6.222h-.638c-.088 0-.167.062-.198.154l-.117.354h.639l.116-.354c.03-.092.11-.154.198-.154" transform="rotate(1 -493.952 2582.658)"/>
            <path fill="#002AAF" d="M2.143 0c1.052 0 1.905.91 1.905 2.032 0 1.122-.853 2.031-1.905 2.031S.238 3.153.238 2.032C.238.91 1.091 0 2.143 0" transform="rotate(1 -493.952 2582.658)"/>
            <path fill="#2E5BCC" d="M2.083.635c.756 0 1.37.654 1.37 1.46 0 .807-.614 1.46-1.37 1.46-.756 0-1.369-.653-1.369-1.46 0-.806.613-1.46 1.37-1.46" transform="rotate(1 -493.952 2582.658)"/>
            <path fill="#002AAF" d="M1.3 2.095c0-.7.463-1.284 1.081-1.427-.094-.022-.192-.033-.293-.033-.759 0-1.374.654-1.374 1.46 0 .807.615 1.46 1.374 1.46.1 0 .199-.011.293-.033C1.763 3.38 1.3 2.795 1.3 2.095" transform="rotate(1 -493.952 2582.658)"/>
            <path fill="#8BCAFF" d="M2.083 1.143c.428 0 .774.398.774.889 0 .49-.346.889-.774.889-.427 0-.773-.398-.773-.89 0-.49.346-.888.773-.888" transform="rotate(1 -493.952 2582.658)"/>
            <path fill="#5CB3F8" d="M2.083 1.778c.165 0 .298.142.298.317 0 .176-.133.318-.298.318-.164 0-.297-.142-.297-.318 0-.175.133-.317.297-.317" transform="rotate(1 -493.952 2582.658)"/>
        </g>
        <g transform="matrix(-1 0 0 1 66 12)">
            <mask id="89hjtdumve" fill="#fff">
                <use xlink:href="#vgdv46nvrd"/>
            </mask>
            <path fill="#EDECED" d="M.24 26.334c2.67-.112 5.34-.216 8.011-.311 4.736-.169 9.472-.31 14.21-.425 4.751-.114 9.505-.202 14.258-.262-.955-14.448-.633-21.232.13-24.305.043-.174.169-.552-.035-.905-.389-.672-18.083 1.329-34.13 6.371l-.023.068C1.595 13.125.774 19.722.195 26.34c.014-.004.029-.006.045-.007" mask="url(#89hjtdumve)"/>
            <g transform="translate(0 25.54)">
                <mask id="h5bmf01srg" fill="#fff">
                    <use xlink:href="#1c8ui9g77f"/>
                </mask>
                <path fill="#283378" d="M28.729.28c-4.739.09-9.476.208-14.212.352C9.757.778 4.997.951.24 1.15c-.029.002-.054-.003-.076-.01C.117 1.693.068 2.247.023 2.8l.011.028c-.052.412-.045.83.024 1.24.016.095.037.193.095.27.127.168.37.178.588.16 4.673-.008 9.347-.027 14.02-.054 4.68-.027 9.36-.064 14.04-.11l4.07-.041 2.034-.023c.482-.005 1.344.161 1.66-.302.137-.203.146-.46.151-.703L36.764.98l.032-.07-.052-.757C34.072.187 31.4.229 28.73.28" mask="url(#h5bmf01srg)"/>
            </g>
            <path fill="#283378" d="M12.479 34.577c1.166-.196 2.326-.42 3.478-.672.542-.119 1.008-.376 1.453-.68.144-.097.296-.747.293-1.146-.004-.574-.074-1.147-.21-1.707l.05.002c1.088-.033 6.279-.19 7.483-.04.051.006.224-.028.265.083.048.13.65 1.701.181 2.651-.055.111-.107.197-.133.24l-.045.033c-1.078.8-3.86 1.698-5.378 1.658-.8-.021-1.628-.006-2.429-.01-.617-.004-1.246-.028-1.863 0-1.027.046-2.008-.073-3.033-.143-.133-.01-.313-.127-.21-.205"/>
            <mask id="gugm3hukoi" fill="#fff">
                <use xlink:href="#veyd38duoh"/>
            </mask>
            <path fill="#527DBF" d="M37.624.148c.131.125.02 1.274 0 1.638-.393 6.93-1.18 19.402-.262 27.843.097.887-37.255.659-37.218.379.035-.27 31.452 0 32.894-.252.285-.05 2.358 0 2.358 0s1.46 0 1.442-.378c-.524-10.71-1.048-18.521-.131-29.356 0 0 .786 0 .917.126" mask="url(#gugm3hukoi)"/>
            <path fill="#B0C5E7" d="M4.442 7.768c.65-.25 29.618-5.504 30.268-4.878.65.625.594 21.226-.26 21.39-.65.126-30.397 1.377-31.436 1.252-.645-.078.779-17.513 1.428-17.764"/>
            <g transform="translate(12.35 32.162)">
                <mask id="bdki2kp6ok" fill="#fff">
                    <use xlink:href="#tngkms3u1j"/>
                </mask>
                <path fill="#203F8D" d="M.13 2.364c1.173-.21 2.319-.54 3.477-.809.546-.126 1.367-.49 1.472-.642.268-.385.268-.642.268-.642-.036.066 7.895.273 7.846.478-.004.013-.046.063-.078.156-.009.025-.02.064-.056.101 0 0-.02.02-.045.035-1.529.913-2.538 1.224-2.538 1.224-.536.165-1.532.466-2.869.55-.492.031-.458-.003-2.441-.01-1.173-.005-1.76-.007-1.873 0 0 0-2.322.14-3.05-.154-.06-.024-.248-.1-.24-.175.002-.02.02-.036.029-.043" mask="url(#bdki2kp6ok)"/>
            </g>
        </g>
    </g>
</svg>
