<?xml version="1.0" encoding="UTF-8"?>
<svg width="115px" height="157px" viewBox="0 0 115 157" version="1.1" xmlns="http://www.w3.org/2000/svg" xmlns:xlink="http://www.w3.org/1999/xlink">
    <title>F2EFD4C6-B5F8-41A0-B172-FB62B0063F93</title>
    <g id="Landing-page" stroke="none" stroke-width="1" fill="none" fill-rule="evenodd">
        <g id="Desktop-•-Page-Calculette-LGO--•-Oui-" transform="translate(-724.000000, -841.000000)">
            <g id="Group-2" transform="translate(724.000000, 841.000000)">
                <path d="M5.04798617,139.355392 C6.65142431,126.23478 92.6827068,100.910616 108.654114,113.338201 C124.625522,125.765786 109.270995,149.089111 75.8008233,155.061621 C42.3306521,161.034131 3.44454804,152.476005 5.04798617,139.355392 Z" id="Background-Shape" fill="#9ACCFF" opacity="0.5"></path>
                <polygon id="Table-Stuff" fill="#C5CFD6" points="28 89 31 89 28.9182735 137 28 137"></polygon>
                <polygon id="Table-Stuff-Copy-2" fill="#C5CFD6" transform="translate(33.500000, 113.000000) scale(-1, 1) translate(-33.500000, -113.000000) " points="32 89 35 89 32.9182735 137 32 137"></polygon>
                <polygon id="Table-Stuff" fill="#C5CFD6" points="101 89 104 89 104 137 103.240506 137"></polygon>
                <polygon id="Table-Stuff-Copy" fill="#C5CFD6" transform="translate(98.500000, 113.000000) scale(-1, 1) translate(-98.500000, -113.000000) " points="97 89 100 89 100 137 99.2405062 137"></polygon>
                <rect id="Table-Stuff" fill="#C5CFD6" x="27" y="83" width="78" height="6"></rect>
                <g id="human-sit-on-chair" transform="translate(45.000000, 39.000000)" fill-rule="nonzero">
                    <g id="man">
                        <ellipse id="Oval" fill="#FFB9B9" cx="21.4039201" cy="7.93602638" rx="6.29327463" ry="6.29138445"></ellipse>
                        <path d="M16.7667711,11.081717 L16.7667711,21.0154811 L27.0347442,21.0154811 C27.0347442,21.0154811 25.7098447,12.7373451 26.3722887,10.2539045 L16.7667711,11.081717 Z" id="Path" fill="#FFB9B9"></path>
                        <path d="M37.1371051,24.4922983 C37.1371051,24.4922983 27.3659687,19.6909796 27.3659687,19.3598546 C27.3659687,19.0287296 26.3722953,16.8764139 25.7098447,16.8764139 C25.0473941,16.8764139 19.4165701,15.0552233 16.269936,17.7042264 L15.9387083,19.856542 L3.84899901,27.803553 L7.16124855,39.8896328 C7.16124855,39.8896328 9.3142092,42.207511 8.65176027,43.8631391 C7.98931135,45.5187673 9.14859697,53.9624691 9.14859697,53.9624691 L35.149755,53.1346566 L35.149755,41.876386 C35.149755,41.876386 35.9778178,39.2273812 36.4746561,38.3995688 C36.9714945,37.5717563 36.4746561,35.0883141 36.4746561,35.0883141 L40.4493546,30.1214312 C40.4493546,30.1214312 39.9525179,25.4856749 37.1371051,24.4922983 Z" id="Path" fill="#D4E4F4"></path>
                        <path d="M4.26303041,31.8598398 L5.00828627,27.8035596 C5.00828627,27.8035596 0.70236169,46.5121422 1.19919838,48.6644579 C1.69603507,50.8167735 5.33951073,54.1280283 5.83634742,54.2935907 C6.33318411,54.4591532 10.9703348,40.0551953 10.9703348,40.0551953 L4.26303041,31.8598398 Z" id="Path" fill="#000000" opacity="0.1"></path>
                        <path d="M6.66441022,27.3068656 L3.84899901,27.803553 C3.84899901,27.803553 -0.456925569,46.5121422 0.0399111223,48.6644579 C0.536747814,50.8167735 4.18022347,54.1280283 4.67706016,54.2935907 C5.17389685,54.4591532 9.81104753,40.0551953 9.81104753,40.0551953 L6.66441022,27.3068656 Z" id="Path" fill="#D4E4F4"></path>
                        <path d="M38.0479732,32.8532163 L39.4556796,30.1214312 C39.4556796,30.1214312 41.4430296,48.8300204 40.1181351,50.6512193 C38.7932405,52.4724182 33.5523322,53.1538811 33.5523322,53.1538811 L33.493636,39.5585161 L38.0479732,32.8532163 Z" id="Path" fill="#000000" opacity="0.1"></path>
                        <path d="M38.2963923,27.9691155 L40.4493546,30.1214312 C40.4493546,30.1214312 42.4367047,48.8300204 41.1118101,50.6512193 C39.7869156,52.4724182 34.5460073,53.1538811 34.5460073,53.1538811 L34.487311,39.5585161 L38.2963923,27.9691155 Z" id="Path" fill="#D4E4F4"></path>
                        <path d="M6.16757353,56.4459064 C6.16757353,56.4459064 1.36481061,54.6247157 0.536749459,58.1015329 C-0.291311693,61.5783501 2.52409787,77.1412471 2.52409787,77.1412471 C2.52409787,77.1412471 4.3458357,88.8962003 5.50512296,89.2273269 C6.66441022,89.5584535 11.7983976,89.7240144 12.6264587,88.2339503 C13.4545199,86.7438863 10.142272,71.5121143 10.142272,71.5121143 L29.3533171,71.180986 C29.3533171,71.180986 28.1940298,84.4260032 27.5315809,85.5849423 C26.869132,86.7438814 26.8691254,90.7173877 27.5315809,90.7173877 C28.1940364,90.7173877 35.4809795,90.3862594 35.9778162,89.3928861 C36.4746529,88.3995128 39.2900657,66.0485406 39.2900657,66.0485406 C39.2900657,66.0485406 41.6086402,58.2670921 38.958838,58.7637812 C36.3090357,59.2604703 6.16757353,56.4459064 6.16757353,56.4459064 Z" id="Path" fill="#505361"></path>
                        <path d="M34.4873061,88.7306378 C34.4873061,88.7306378 36.14343,87.5716987 36.9714928,88.7306378 C37.7995556,89.8895769 38.1307801,91.2140784 34.4873061,93.2008316 C30.8438321,95.1875847 28.0284192,94.6908973 28.0284192,94.3597707 L28.0284192,89.5584519 L34.4873061,88.7306378 Z" id="Path" fill="#000000"></path>
                        <path d="M5.83634742,88.2339503 C5.83634742,88.2339503 4.18022347,87.0750113 3.35216067,88.2339503 C2.52409787,89.3928894 2.19287012,90.717391 5.83634742,92.7041392 C9.47982472,94.6908874 12.2952343,94.1942032 12.2952343,93.8630783 L12.2952343,89.0617644 L5.83634742,88.2339503 Z" id="Path" fill="#000000"></path>
                        <path d="M21.4447321,0.00320801875 C20.8178845,-0.0185618051 20.1921218,0.0706017296 19.5963199,0.26658412 C19.1343102,0.452247031 18.6929778,0.685677903 18.279516,0.963072048 L15.5011273,2.69029993 C15.0187855,2.89898345 14.7093852,3.37726413 14.7168711,3.90262747 L14.3696826,6.50194654 C14.282066,7.15791114 14.2013027,7.85941123 14.4950325,8.45248778 C14.7402035,8.94750069 15.2077398,9.28624014 15.5921845,9.68297556 C16.2074063,10.3205321 16.6214923,11.1248842 16.7829063,11.9959238 C16.9816676,13.0811856 16.8544189,14.3880911 17.7135148,15.0806756 C18.1786816,15.4556779 18.8127203,15.5266131 19.4092692,15.5614761 C21.0405482,15.6566881 22.6772172,15.5937132 24.2963496,15.3734338 C24.5537715,15.3541633 24.8047799,15.283852 25.034739,15.1665995 C25.3268052,14.9938996 25.5106802,14.6890444 25.6825369,14.3965379 C26.3029694,13.3405283 26.9424529,12.2171579 26.9357165,10.9924883 C26.9323828,10.386624 26.7773129,9.73592812 27.0683063,9.20446149 C27.2220829,8.97857125 27.3889753,8.76188864 27.5681245,8.55552905 C27.9284158,8.04941602 27.9985544,7.39912978 28.0572721,6.78067824 C28.2448164,4.80531471 28.0487536,3.30207133 26.5924589,1.91058744 C25.2330265,0.611659912 23.2987222,0.0151635093 21.4447321,0.00320801875 Z" id="Path" fill="#2F2E41"></path>
                    </g>
                    <g id="chair" transform="translate(1.000000, 47.000000)">
                        <polygon id="Path" fill="#000000" points="5.48800879 28.4747567 2.04165808e-13 56.4152529 2.74392271 56.4152529 8.00336657 28.9329183"></polygon>
                        <polygon id="Path" fill="#000000" points="23.0953499 30.765074 26.5254575 62.8278795 28.812087 62.8278795 26.7540224 29.8489143"></polygon>
                        <polygon id="Path" fill="#000000" points="32.4707595 29.8489143 37.2727468 51.1478668 39.5593763 51.1478668 34.9861173 29.3909163"></polygon>
                        <polygon id="Path" fill="#000000" points="14.1773969 29.8489143 13.4913754 46.7964767 15.3207116 46.7964767 16.6927547 29.8489143"></polygon>
                        <path d="M1.60062757,25.4975586 C1.60062757,25.4975586 -2.05804496,0.99241882 8.23198704,0.305359637 C18.522019,-0.381699546 33.1567516,0.305359637 33.1567516,0.305359637 C33.1567516,0.305359637 41.6174523,-0.381701183 39.1021092,25.4975586 C39.1021092,25.4975586 41.3887844,33.0552178 20.8087041,32.368157 C0.228623738,31.6810962 1.60062757,25.4975586 1.60062757,25.4975586 Z" id="Path" fill="#002AAF"></path>
                    </g>
                </g>
                <g id="Hanging-Lamp" transform="translate(0.000000, 1.000000)">
                    <g id="Light" transform="translate(0.000000, 40.000000)">
                        <ellipse id="Hanging-Lamp-Light" fill="#F9D73D" cx="13.3577093" cy="9.30991863" rx="11.4687403" ry="6.07168606"></ellipse>
                        <path d="M26.7154187,13.4926357 C26.7154187,6.04085877 20.7349685,0 13.3577093,0 C5.98045018,0 -7.10542736e-15,6.04085877 -7.10542736e-15,13.4926357" id="Hanging-Lamp" fill="#9ACCFF"></path>
                    </g>
                    <rect id="Wire" fill="#EBF5FF" x="12" y="0" width="1" height="40"></rect>
                </g>
                <ellipse id="Hanging-Lamp-Light" fill="#F9D73D" cx="36" cy="26" rx="9" ry="5"></ellipse>
                <path d="M47,29 C47,22.9248678 42.2989899,18 36.5,18 C30.7010101,18 26,22.9248678 26,29" id="Hanging-Lamp" fill="#9ACCFF"></path>
                <rect id="Wire" fill="#EBF5FF" x="36" y="0" width="1" height="18"></rect>
            </g>
        </g>
    </g>
</svg>